Fly_normalized_Motion_pl06
version=1
nRows=16
nColumns=43
inDegrees=yes
endheader
time		pelvis_tilt		pelvis_list		pelvis_rotation		pelvis_tx		pelvis_ty		pelvis_tz		hip_flexion_r		hip_adduction_r		hip_rotation_r		knee_angle_r		ankle_angle_r		subtalar_angle_r		mtp_angle_r		hip_flexion_l		hip_adduction_l		hip_rotation_l		knee_angle_l		ankle_angle_l		subtalar_angle_l		mtp_angle_l		lumbar_extension		lumbar_bending		lumbar_rotation		neck_flexion		neck_lateral_bending		neck_rotation		arm_flex_r		arm_add_r		arm_rot_r		elbow_flex_r		pro_sup_r		wrist_flex_r		wrist_dev_r		hand_finger_flex_r		arm_flex_l		arm_add_l		arm_rot_l		elbow_flex_l		pro_sup_l		wrist_flex_l		wrist_dev_l		hand_finger_flex_l		
0.610000		-0.897482		-15.273432		90.747234		-0.012056		1.877969		1.474164		44.101280		-10.672528		6.417738		-106.905019		-26.771285		-5.426944		20.964160		42.684294		1.199102		7.915093		-108.989709		-23.583512		-12.657387		6.982316		-40.792860		-1.075257		2.593809		13.368406		2.286032		-4.528160		133.102528		-10.456732		37.164797		52.016858		72.686640		-29.802474		-3.788053		42.163904		128.342005		0.246907		22.767063		58.363236		107.492388		-24.668024		12.495302		83.997746		
0.614394		-0.723100		-14.997040		90.645750		-0.011971		1.878244		1.466074		44.135595		-10.487482		6.085873		-106.669430		-26.676503		-5.355394		21.531860		42.784310		1.026775		7.687347		-108.665875		-26.577511		-13.477342		6.529611		-40.937126		-1.030407		2.913053		13.172731		2.230313		-4.621241		133.088585		-10.811503		38.069012		51.926793		73.048450		-29.841126		-3.763737		41.984191		127.957229		0.306727		22.721844		58.248928		107.536274		-24.744568		12.441901		83.511286		
0.618788		-0.649441		-14.687339		90.466755		-0.011780		1.878401		1.457924		44.177998		-10.375512		5.806739		-106.477448		-26.133509		-5.409535		21.892764		42.837577		0.899762		7.416671		-108.375837		-28.737536		-13.386837		6.327297		-41.101198		-1.115031		3.087648		12.760056		2.373122		-4.625068		132.943915		-11.086457		38.793087		51.833246		73.240610		-29.772881		-3.681539		41.910896		127.524277		0.187068		22.880561		58.290769		107.613608		-24.716632		12.398399		83.182083		
0.623182		-0.566994		-14.398961		90.291933		-0.011712		1.878461		1.450024		44.267238		-10.246879		5.536708		-106.292001		-25.169055		-5.544803		22.130274		42.984522		0.818791		7.152741		-108.146067		-30.646705		-13.303079		6.265936		-41.304830		-1.176670		3.278572		12.554756		2.440509		-4.596896		132.851161		-11.382787		39.556483		51.760203		73.465350		-29.694789		-3.645361		41.830862		127.153389		0.084991		23.047660		58.281650		107.747006		-24.733324		12.323141		82.780418		
0.627576		-0.502751		-14.111391		90.172366		-0.011680		1.878339		1.442266		44.407664		-10.177838		5.228543		-106.147133		-24.144219		-5.747367		22.250277		43.188654		0.742598		6.810412		-107.953848		-31.974581		-13.339124		6.334227		-41.546272		-1.213422		3.418073		12.428893		2.463794		-4.582528		132.773029		-11.675730		40.275127		51.677912		73.670958		-29.610538		-3.633948		41.738563		126.782489		-0.054010		23.230239		58.323303		107.928711		-24.764357		12.199255		82.331794		
0.631970		-0.457281		-13.831353		90.030038		-0.011807		1.878108		1.434598		44.593614		-10.096415		4.994243		-105.961267		-23.027210		-6.130252		22.215263		43.411203		0.776410		6.503798		-107.780472		-32.867082		-13.384323		6.518831		-41.809918		-1.237245		3.552480		12.373239		2.445500		-4.548265		132.678937		-11.936309		41.024105		51.616605		73.888524		-29.486403		-3.652642		41.625940		126.400260		-0.270749		23.453865		58.385499		108.184995		-24.810050		12.016663		81.790209		
0.636364		-0.421033		-13.544239		89.937907		-0.011996		1.877733		1.427019		44.852897		-10.066798		4.756360		-105.776493		-22.303082		-6.486485		22.109437		43.639172		0.828254		6.181585		-107.592825		-33.165636		-13.362595		6.686490		-42.107734		-1.246425		3.611011		12.393713		2.423132		-4.516632		132.500180		-12.134446		41.536987		51.546592		74.043518		-29.381293		-3.661254		41.550041		126.025017		-0.462460		23.656676		58.410448		108.375462		-24.832610		11.889229		81.416731		
0.640758		-0.461647		-13.241574		89.799726		-0.012171		1.877177		1.419425		45.132321		-10.090649		4.521935		-105.650109		-21.261982		-7.301731		21.876422		43.851182		0.925353		5.799599		-107.387074		-33.101243		-13.202936		6.938957		-42.438049		-1.329615		3.651609		12.365516		2.383537		-4.442156		132.357851		-12.434448		42.247227		51.539978		74.352224		-29.211952		-3.697683		41.462339		125.580827		-0.766300		23.978839		58.636892		108.673090		-24.896924		11.688336		80.910826		
0.645152		-0.447474		-12.914254		89.704875		-0.012542		1.876602		1.412027		45.477709		-10.073657		4.327999		-105.469611		-20.782744		-7.861877		21.325640		44.042040		1.071415		5.539700		-107.107125		-32.835927		-13.017908		7.327215		-42.820615		-1.334698		3.689474		12.433857		2.340835		-4.420463		132.112983		-12.598279		42.665478		51.450443		74.608411		-29.109345		-3.733323		41.301602		125.181632		-0.958405		24.158843		58.603393		108.902618		-24.889576		11.542111		80.219109		
0.649545		-0.386486		-12.519225		89.632931		-0.012738		1.875912		1.404498		45.743066		-10.013175		3.936219		-105.361137		-19.757227		-9.025552		17.189351		44.151904		1.127019		5.365703		-106.851985		-32.124220		-12.251677		9.739382		-43.264980		-1.318882		3.776227		12.375231		2.324932		-4.379605		131.776619		-12.912702		43.016827		51.498618		75.450203		-28.505352		-3.759261		40.454457		124.559430		-1.299653		24.250625		58.984592		109.297932		-23.726115		11.106717		76.644316		
0.653939		-0.554460		-12.154708		89.481309		-0.013228		1.875011		1.397114		46.164421		-10.156514		3.848127		-105.240630		-19.296194		-9.983238		16.900275		44.306512		1.431455		4.993349		-106.523813		-31.267624		-11.831381		10.006144		-43.706843		-1.456630		3.671549		12.388974		2.204150		-4.294587		131.463503		-13.109008		43.485620		51.464434		75.780619		-28.470685		-3.788253		40.446319		124.035520		-1.628957		24.448482		59.146084		109.553937		-23.702042		11.004142		76.471272		
0.658333		-0.635777		-11.754188		89.339690		-0.013581		1.874020		1.389840		46.586993		-10.173315		3.751523		-105.100000		-19.017532		-10.862329		16.460538		44.474707		1.644575		4.716100		-106.204805		-30.418254		-11.260235		10.267925		-44.209092		-1.547872		3.626291		12.406001		2.132386		-4.220816		131.076846		-13.277761		43.769087		51.406578		76.146912		-28.465101		-3.848620		40.445212		123.517982		-1.926458		24.615260		59.224381		109.810663		-23.739556		10.873580		76.095746		
0.662727		-0.684802		-11.366077		89.223957		-0.014028		1.872908		1.382466		47.002935		-10.195403		3.635059		-104.927904		-18.606815		-11.670546		16.131336		44.649814		1.851056		4.472565		-105.848166		-29.557359		-10.937582		10.438532		-44.691362		-1.579529		3.599349		12.422946		1.983958		-4.125054		130.572449		-13.499761		44.053043		51.487800		76.478097		-28.403497		-3.926377		40.487142		122.890168		-2.271472		24.785388		59.375272		109.982990		-23.796963		10.734233		75.735012		
0.667121		-0.736507		-10.882480		89.021239		-0.014120		1.871713		1.375356		47.417279		-10.062544		3.604336		-104.736213		-18.528615		-12.893530		15.057890		44.763847		1.979497		4.229920		-105.505100		-28.524248		-10.178222		10.631448		-45.270907		-1.700332		3.588488		12.385124		1.859174		-4.084253		130.018209		-13.513444		44.113743		51.202981		77.329006		-28.548106		-4.090910		40.475775		122.297160		-2.551876		24.932402		59.258884		110.263850		-24.023838		10.462048		74.504373		
0.671515		-0.689570		-10.464335		88.936522		-0.014373		1.870365		1.368136		47.828973		-9.973641		3.454159		-104.477317		-18.208899		-13.315123		14.702321		45.010163		2.089394		4.051337		-105.119192		-28.134778		-10.112447		10.672381		-45.809380		-1.678058		3.612632		12.450813		1.751422		-4.032471		129.369523		-13.779849		44.285082		51.335775		77.643339		-28.517478		-4.170175		40.523314		121.626888		-2.876294		25.073925		59.331724		110.299058		-24.023889		10.373145		74.100409		
0.675909		-0.648322		-10.011188		88.837684		-0.014629		1.868836		1.361000		48.256319		-9.843497		3.330734		-104.279817		-17.632104		-13.763635		13.117513		45.242210		2.198959		3.828068		-104.714739		-27.849545		-10.259520		10.454974		-46.394480		-1.663484		3.633181		12.494294		1.698878		-4.003884		128.638868		-13.948782		44.220088		51.378214		78.688685		-28.523107		-4.155712		40.723967		120.950514		-3.255420		25.255849		59.374604		110.100969		-23.633810		10.203720		72.413170		
